<svg xmlns="http://www.w3.org/2000/svg" width="920" height="911" viewBox="0 0 920 911" version="1.1"><path d="M 509.739 57.440 C 507.120 58.131, 503.462 59.777, 501.609 61.098 C 499.756 62.419, 467.552 85.325, 430.044 112 C 392.537 138.675, 344.220 173.062, 322.675 188.416 C 301.129 203.770, 280.740 218.281, 277.366 220.663 C 265.037 229.366, 264.816 236.169, 276.334 252.429 C 280.550 258.381, 284 263.594, 284 264.015 C 284 264.435, 271.066 274.391, 255.257 286.140 C 220.593 311.900, 220.308 312.144, 218.969 317.115 C 217.924 320.997, 220.025 332.280, 222.024 333.515 C 222.434 333.768, 236.658 323.357, 253.634 310.378 C 270.610 297.400, 286.874 284.967, 289.775 282.749 C 292.677 280.532, 295.311 278.977, 295.628 279.294 C 295.945 279.612, 303.021 289.403, 311.352 301.053 C 319.684 312.703, 326.871 322.229, 327.325 322.222 C 327.779 322.215, 337.229 315.716, 348.325 307.781 C 365.942 295.182, 473.059 218.845, 537.500 172.966 C 571.032 149.092, 570.536 149.348, 576.470 152.850 C 578.392 153.984, 607.984 175.553, 642.232 200.781 C 676.479 226.009, 712.190 252.299, 721.588 259.203 L 738.676 271.755 749.521 256.695 C 765.615 234.347, 765.431 230.614, 747.609 217.850 C 701.553 184.867, 681.417 170.424, 656.500 152.499 C 640.550 141.024, 614.225 122.116, 598 110.480 C 581.775 98.844, 558.731 82.312, 546.791 73.742 C 534.851 65.172, 524.276 57.926, 523.291 57.639 C 518.865 56.348, 514.136 56.279, 509.739 57.440 M 306.402 105.935 C 304.671 106.354, 288.336 118.109, 269.402 132.562 C 250.756 146.794, 228.975 163.419, 221 169.506 C 60.052 292.362, 72.086 282.360, 71.215 294 C 70.793 299.639, 158.672 566.770, 162.911 572.735 C 167.788 579.597, 173.551 580.091, 189.073 574.976 C 195.790 572.763, 201.398 571.075, 201.535 571.226 C 201.673 571.377, 206.549 586.144, 212.372 604.043 C 223.559 638.433, 224.498 640.361, 231.315 642.936 C 233.994 643.948, 245 644.466, 245 643.580 C 245 643.348, 239.127 625.911, 231.949 604.830 C 224.771 583.748, 218.808 566.106, 218.699 565.625 C 218.589 565.144, 230.503 560.730, 245.172 555.818 L 271.845 546.885 264.320 524.693 C 223.317 403.766, 178.937 269.725, 178.772 266.316 C 178.498 260.621, 178.313 260.793, 210 237.147 C 275.902 187.967, 316.423 157.765, 328.808 148.596 C 337.429 142.212, 341.931 138.262, 341.591 137.377 C 340.395 134.259, 321.266 110.118, 318.500 108.235 C 314.853 105.752, 310.543 104.933, 306.402 105.935 M 521.237 209.527 C 514.731 213.908, 513.404 211.944, 531.750 225.091 C 570.392 252.784, 586 264.190, 586 264.737 C 586 265.370, 573.182 282.589, 561.300 297.917 C 557.285 303.097, 554 307.658, 554 308.053 C 554 308.447, 565.813 317.772, 580.250 328.774 C 594.688 339.776, 611.675 352.726, 618 357.553 C 624.325 362.379, 635.800 371.135, 643.500 377.011 C 651.200 382.886, 664.547 393.050, 673.160 399.597 C 696.699 417.488, 784.082 484.354, 785.422 485.500 C 791.755 490.915, 791.602 491.991, 779.582 526.549 C 773.853 543.022, 759.881 583.275, 748.535 616 C 737.188 648.725, 727.010 677.922, 725.917 680.882 C 724.824 683.841, 724.058 686.375, 724.215 686.511 C 730.157 691.676, 763.378 698.619, 768.345 695.734 C 773.928 692.491, 771.343 699.596, 820.022 553.695 C 866.579 414.158, 866.085 415.809, 863.327 408.770 C 860.691 402.043, 859.712 401.146, 831.687 379.751 C 769.178 332.030, 722.983 296.703, 716 291.278 C 684.125 266.518, 633.290 228.201, 630.186 226.596 C 622.193 222.463, 616.149 225.445, 606.373 238.345 C 602.140 243.930, 598.358 248.869, 597.968 249.321 C 597.577 249.773, 584.937 241.036, 569.879 229.907 C 532.292 202.128, 532.250 202.110, 521.237 209.527 M 440.254 440.402 C 409.400 450.464, 405.410 493.585, 434 507.982 C 464.674 523.429, 497.364 494.035, 485.137 462 C 478.684 445.093, 457.350 434.826, 440.254 440.402 M 699.662 498.500 C 692.061 521.325, 685.357 540, 684.763 540 C 683.910 540, 654.697 530.208, 636.275 523.747 C 632.232 522.329, 633.840 519.030, 622.745 551.500 C 617.483 566.900, 600.274 617.075, 584.502 663 C 568.730 708.925, 551.888 757.975, 547.075 772 C 537.427 800.114, 536.012 803.388, 532.759 805.129 C 530.507 806.334, 525.782 806.310, 377.250 804.333 L 328 803.678 328 822.438 C 328 843.706, 328.660 846.381, 334.856 850.234 C 340.209 853.563, 624.374 854.380, 630.832 851.086 C 633.948 849.496, 642 841.964, 642 840.639 C 642 840.045, 685.192 714.219, 705.038 657 C 721.965 608.197, 733.231 575.385, 734.184 572.111 C 736.459 564.297, 731.708 556.488, 722.690 553.216 C 719.835 552.180, 714.014 550.088, 709.753 548.566 C 705.492 547.044, 702.272 545.368, 702.598 544.841 C 703.941 542.668, 726.080 478.216, 726.619 474.910 C 727.555 469.168, 719.012 457, 714.044 457 C 713.735 457, 707.263 475.675, 699.662 498.500 M 79.177 472.920 C 61.266 479.202, 57.750 481.499, 55.978 488.080 C 54.670 492.938, 52.971 487.226, 74.993 552 C 84.997 581.425, 97.807 619.225, 103.459 636 C 149.940 773.951, 147.979 768.945, 157.296 773.368 C 165.318 777.177, 450.476 777.944, 455.765 774.171 C 461.020 770.423, 461.941 767.529, 462.406 753.312 C 462.637 746.265, 462.864 740.113, 462.913 739.640 C 462.961 739.163, 477.448 739.081, 495.374 739.456 C 530.404 740.188, 531.986 740.013, 536.671 734.879 C 538.343 733.046, 542.997 722.980, 542.999 721.189 C 543 721.018, 526.237 720.937, 505.750 721.008 C 485.262 721.080, 467.038 721.107, 465.250 721.069 L 462 721 462 693 L 462 665 442.250 664.965 C 342.015 664.790, 171.662 663.834, 168.386 663.428 C 161.778 662.609, 161.101 661.198, 148.035 621 C 95.886 460.561, 98.029 466.984, 96.667 467.097 C 96.025 467.151, 88.154 469.771, 79.177 472.920" stroke="none" fill="#7c3c8c" fill-rule="evenodd"/></svg>